<svg width="24" height="24" viewBox="0 0 24 24" fill="none" xmlns="http://www.w3.org/2000/svg">
<path d="M11.9998 2C10.0346 2 8.14983 2.78069 6.76018 4.17034C5.37054 5.55998 4.58984 7.44475 4.58984 9.41V9.95C4.88984 14.01 8.25984 17.275 11.9998 21.5C15.9048 17.09 19.4098 13.75 19.4098 9.41C19.4098 7.44475 18.6292 5.55998 17.2395 4.17034C15.8499 2.78069 13.9651 2 11.9998 2ZM11.9998 5.85C12.7051 5.85 13.3946 6.05921 13.981 6.45116C14.5673 6.84311 15.0243 7.40018 15.294 8.05189C15.5636 8.7036 15.6339 9.42066 15.496 10.1123C15.358 10.804 15.018 11.4392 14.5189 11.9376C14.0198 12.436 13.3841 12.7751 12.6923 12.9121C12.0004 13.0491 11.2834 12.9778 10.6321 12.7072C9.98078 12.4366 9.42435 11.9789 9.03322 11.392C8.6421 10.805 8.43385 10.1153 8.43484 9.41C8.43617 8.46537 8.81235 7.55988 9.48077 6.8924C10.1492 6.22491 11.0552 5.85 11.9998 5.85Z" fill="white" stroke="#FCFCFB" stroke-linecap="round" stroke-linejoin="round"/>
</svg>
