<svg width="13" height="24" viewBox="0 0 13 24" fill="none" xmlns="http://www.w3.org/2000/svg">
<path d="M0.985568 0.666002C0.822026 0.844598 0.730469 1.08435 0.730469 1.334C0.730469 1.58366 0.822026 1.82341 0.985568 2.002L10.1224 12L0.985568 21.996C0.822026 22.1746 0.730469 22.4143 0.730469 22.664C0.730469 22.9136 0.822026 23.1534 0.985568 23.332C1.06506 23.4191 1.1601 23.4883 1.26509 23.5356C1.37007 23.5828 1.48287 23.6072 1.59682 23.6072C1.71077 23.6072 1.82357 23.5828 1.92855 23.5356C2.03353 23.4883 2.12858 23.4191 2.20807 23.332L11.9243 12.698C12.095 12.5112 12.1905 12.2608 12.1905 12C12.1905 11.7392 12.095 11.4887 11.9243 11.302L2.20807 0.668002C2.12858 0.580916 2.03353 0.511698 1.92855 0.464435C1.82357 0.417172 1.71077 0.392822 1.59682 0.392822C1.48287 0.392822 1.37007 0.417172 1.26509 0.464435C1.1601 0.511698 1.06506 0.580916 0.985568 0.668002V0.666002Z" fill="#036399"/>
</svg>
