<svg width="24" height="24" viewBox="0 0 24 24" fill="none" xmlns="http://www.w3.org/2000/svg">
<path d="M12 22C13.3135 22.0017 14.6143 21.7438 15.8278 21.2412C17.0413 20.7385 18.1435 20.001 19.071 19.071C20.001 18.1435 20.7385 17.0413 21.2412 15.8278C21.7438 14.6143 22.0017 13.3135 22 12C22.0017 10.6865 21.7438 9.3857 21.2411 8.17222C20.7385 6.95875 20.001 5.85656 19.071 4.92901C18.1435 3.99902 17.0413 3.26151 15.8278 2.75885C14.6143 2.25619 13.3135 1.99831 12 2.00001C10.6865 1.99833 9.3857 2.25623 8.17222 2.75889C6.95875 3.26154 5.85656 3.99904 4.92901 4.92901C3.99904 5.85656 3.26154 6.95875 2.75889 8.17222C2.25623 9.3857 1.99833 10.6865 2.00001 12C1.99831 13.3135 2.25619 14.6143 2.75885 15.8278C3.26151 17.0413 3.99902 18.1435 4.92901 19.071C5.85656 20.001 6.95875 20.7385 8.17222 21.2411C9.3857 21.7438 10.6865 22.0017 12 22Z" stroke="url(#paint0_radial_924_2597)" stroke-linejoin="round"/>
<path fill-rule="evenodd" clip-rule="evenodd" d="M12 18.5C12.3315 18.5 12.6495 18.3683 12.8839 18.1339C13.1183 17.8995 13.25 17.5815 13.25 17.25C13.25 16.9185 13.1183 16.6005 12.8839 16.3661C12.6495 16.1317 12.3315 16 12 16C11.6685 16 11.3505 16.1317 11.1161 16.3661C10.8817 16.6005 10.75 16.9185 10.75 17.25C10.75 17.5815 10.8817 17.8995 11.1161 18.1339C11.3505 18.3683 11.6685 18.5 12 18.5Z" fill="url(#paint1_radial_924_2597)"/>
<path d="M12 6V14" stroke="url(#paint2_radial_924_2597)" stroke-linecap="round" stroke-linejoin="round"/>
<defs>
<radialGradient id="paint0_radial_924_2597" cx="0" cy="0" r="1" gradientUnits="userSpaceOnUse" gradientTransform="translate(22 2.00001) rotate(135) scale(28.2843 37.3126)">
<stop offset="1" stop-color="#FFD600"/>
</radialGradient>
<radialGradient id="paint1_radial_924_2597" cx="0" cy="0" r="1" gradientUnits="userSpaceOnUse" gradientTransform="translate(13.25 16) rotate(135) scale(3.53553 4.66408)">
<stop offset="1" stop-color="#FFD600"/>
</radialGradient>
<radialGradient id="paint2_radial_924_2597" cx="0" cy="0" r="1" gradientUnits="userSpaceOnUse" gradientTransform="translate(13 6) rotate(97.125) scale(8.06225 2.61803)">
<stop offset="1" stop-color="#FFD600"/>
</radialGradient>
</defs>
</svg>
