<svg width="48" height="48" viewBox="0 0 48 48" fill="none" xmlns="http://www.w3.org/2000/svg">
<mask id="mask0_1578_2801" style="mask-type:alpha" maskUnits="userSpaceOnUse" x="8" y="8" width="32" height="32">
<rect x="8" y="8" width="32" height="32" fill="#D9D9D9"/>
</mask>
<g mask="url(#mask0_1578_2801)">
<path d="M14.6667 37.3333C13.9333 37.3333 13.3056 37.0722 12.7833 36.55C12.2611 36.0277 12 35.4 12 34.6666V16H14.6667V34.6666H29.3333V37.3333H14.6667ZM20 32C19.2667 32 18.6389 31.7388 18.1167 31.2166C17.5944 30.6944 17.3333 30.0666 17.3333 29.3333V13.3333C17.3333 12.6 17.5944 11.9722 18.1167 11.45C18.6389 10.9277 19.2667 10.6666 20 10.6666H32C32.7333 10.6666 33.3611 10.9277 33.8833 11.45C34.4056 11.9722 34.6667 12.6 34.6667 13.3333V29.3333C34.6667 30.0666 34.4056 30.6944 33.8833 31.2166C33.3611 31.7388 32.7333 32 32 32H20ZM20 29.3333H32V13.3333H20V29.3333Z" fill="#036399"/>
</g>
</svg>
