<svg width="48" height="48" viewBox="0 0 48 48" fill="none" xmlns="http://www.w3.org/2000/svg"><rect width="48" height="48" rx="8" fill="black"/><path d="M24 9C26.4174 9 28.5234 9.47352 30.3178 10.4206C32.1121 11.3676 33.5078 12.7632 34.5047 14.6075C35.5016 16.4517 36 18.6822 36 21.2991V35.6168H29.9439V29.3364H17.9813V35.6168H12V21.2991C12 18.6822 12.4984 16.4517 13.4953 14.6075C14.4922 12.7632 15.8879 11.3676 17.6822 10.4206C19.4766 9.47352 21.5826 9 24 9ZM29.9439 24.4766V20.7383C29.9439 18.5701 29.4081 16.9377 28.3364 15.8411C27.2648 14.7196 25.8069 14.1589 23.9626 14.1589C22.0935 14.1589 20.6231 14.7196 19.5514 15.8411C18.5047 16.9377 17.9813 18.5701 17.9813 20.7383V24.4766H29.9439Z" fill="white"/><rect width="4" height="4" transform="matrix(1 0 0 -1 22 39)" fill="white"/></svg>
