<svg width="100" height="100" viewBox="0 0 100 100" fill="none" xmlns="http://www.w3.org/2000/svg">
<path fill-rule="evenodd" clip-rule="evenodd" d="M12.2066 2.8169C7.0208 2.8169 2.8169 7.0208 2.8169 12.2066V87.7934C2.8169 92.789 6.71802 96.8733 11.64 97.1663L70.6003 38.206C70.8645 37.9418 71.2227 37.7934 71.5963 37.7934C71.9698 37.7934 72.328 37.9418 72.5922 38.206L97.1831 62.7969V12.2066C97.1831 7.0208 92.9792 2.8169 87.7934 2.8169H12.2066ZM100 66.1944V12.2066C100 5.46507 94.5349 0 87.7934 0H12.2066C5.46507 0 0 5.46507 0 12.2066V87.7934C0 94.5349 5.46507 100 12.2066 100H87.7934C94.5349 100 100 94.5349 100 87.7934V66.1999C100 66.1981 100 66.1963 100 66.1944ZM97.1831 66.7806L71.5963 41.1937L15.6069 97.1831H87.7934C92.9792 97.1831 97.1831 92.9792 97.1831 87.7934V66.7806ZM31.1033 24.4131C27.4084 24.4131 24.4131 27.4084 24.4131 31.1033C24.4131 34.7981 27.4084 37.7934 31.1033 37.7934C34.7981 37.7934 37.7934 34.7981 37.7934 31.1033C37.7934 27.4084 34.7981 24.4131 31.1033 24.4131ZM21.5962 31.1033C21.5962 25.8527 25.8527 21.5962 31.1033 21.5962C36.3539 21.5962 40.6103 25.8527 40.6103 31.1033C40.6103 36.3539 36.3539 40.6103 31.1033 40.6103C25.8527 40.6103 21.5962 36.3539 21.5962 31.1033Z" fill="#9EADBD"/>
</svg>
