<svg width="1094" height="436" viewBox="0 0 1094 436" fill="none" xmlns="http://www.w3.org/2000/svg">
<path d="M72.8392 3.74017C69.0411 6.89072 68.3107 8.466 68.3107 13.9079C68.3107 17.3448 69.0411 21.4978 69.7715 23.0731C71.0862 25.5076 70.794 25.7939 67.142 25.7939C61.5909 25.7939 57.0624 30.2334 55.7477 36.8209C54.8712 41.1171 55.3094 42.4059 57.5007 43.9812C58.9615 44.9836 63.7821 48.4206 68.1646 51.5711C72.547 54.7217 76.4912 57.0129 76.7834 56.5833C77.0755 56.2969 75.6147 53.8624 73.5696 51.1415C65.8273 41.2602 70.2097 40.1146 80.7276 49.1366C89.2003 56.5834 88.616 58.731 77.952 58.731C72.1088 58.731 69.6254 58.0155 67.7263 56.0106C66.2655 54.4353 62.4674 52.7167 59.2536 52.2871C55.1634 51.5711 53.1182 50.4255 52.68 48.5638C51.8035 45.5565 50.0505 44.9837 48.4436 47.4182C47.8593 48.2774 47.1289 54.0052 46.8367 60.1631C46.2524 71.19 46.2524 71.3331 51.0731 75.7725C55.4555 79.7822 55.6016 80.3551 53.4104 81.9304C50.6348 84.0785 46.3985 93.1005 46.3985 96.967C46.3985 98.3991 43.769 102.839 40.4091 106.705C32.0825 116.586 31.4982 117.875 31.0599 130.907C30.6217 142.65 32.6668 160.408 34.5659 160.408C35.4424 160.408 62.0292 99.8312 63.6361 94.1029C64.2204 91.9548 66.2655 91.6684 78.3903 91.5251C86.1326 91.3819 97.3808 91.2388 103.37 91.0956L114.326 90.9523L114.765 129.905C115.057 159.835 115.495 169 116.956 169C117.832 169 125.721 166.709 134.193 164.131C142.666 161.41 154.06 158.832 159.319 158.259L168.815 157.257L169.691 146.23C170.129 140.215 170.86 125.465 171.444 113.436L172.321 91.6684H200.66C216.291 91.6684 229 91.2388 229 90.5228C229 89.0907 216.145 80.6415 211.032 78.7798C206.211 77.0613 203.728 76.9181 204.604 78.3501C205.043 79.0662 201.391 79.2094 196.57 79.0662C190.142 78.6366 186.929 77.6341 184.299 75.486C178.018 69.901 156.836 58.5878 155.959 60.3062C154.645 62.3111 116.956 25.2212 111.405 16.4856C108.191 11.4734 104.685 8.32277 98.2573 4.88581C87.0091 -1.27208 79.2668 -1.55847 72.8392 3.74017ZM119.147 47.1318C123.675 51.1415 129.811 56.1533 132.586 58.5878C138.43 63.3136 137.845 65.7481 131.564 62.5976C124.114 58.731 103.37 41.8331 105.269 41.1171C109.213 39.5418 111.259 40.401 119.147 47.1318ZM106.146 75.7725C112.135 80.0687 116.079 83.9352 115.057 84.2216C114.034 84.6512 108.921 82.6464 103.516 80.0687C98.2573 77.3477 93.7288 75.1996 93.7288 75.1996C93.5827 75.1996 92.9984 73.0515 92.4141 70.3306C91.2454 64.6024 90.8072 64.4591 106.146 75.7725Z" fill="#036399"/>
<path d="M147.677 281.044C141.133 279.107 136.867 282.43 130.181 281.044C107.977 276.445 104.655 255.155 96.827 234.171C86.2922 205.93 78.9495 181.517 96.827 157.125C119.58 126.082 156.933 146.687 195.794 146.889C265.561 147.251 307.822 152.789 370.763 182.448C378.345 186.021 382.173 188.891 389.9 192.146C409.238 200.291 430.022 187.24 442.391 203.999C473.011 245.485 442.391 272.424 442.391 272.424C442.391 272.424 411.749 307.786 408.491 335.461C407.458 344.239 408.491 349.253 408.491 358.09C408.491 366.716 412.743 372.638 408.491 380.18C405.757 385.029 383.886 367.788 383.886 371.559C383.886 380.103 398.505 376.969 401.383 385.029C403.154 389.991 411.679 398.589 408.491 402.808C405.303 407.027 393.728 395.386 393.728 400.114C393.728 411.429 397.844 428.451 389.9 434.596C382.006 440.703 374.179 425.188 365.295 420.588C355.213 415.367 350.442 412.377 340.69 406.58C334.837 403.1 334.937 400.736 329.755 396.343C323.918 391.395 323.383 388.676 316.632 385.029C311.764 382.398 311.171 381.087 305.697 380.18C292.322 377.964 290.204 362.728 276.717 361.322C267.596 360.371 262.652 368.357 253.753 366.171C241.521 363.167 240.663 351.623 233.522 341.388C228.418 334.072 227.357 328.73 221.493 321.991C208.37 306.911 176.11 297.746 176.11 297.746C176.11 297.746 167.632 293.739 162.44 290.742C156.462 287.291 154.313 283.009 147.677 281.044Z" fill="#FFDA05"/>
<path d="M369.831 94.7984C354.64 99.116 345.145 106.456 338.572 119.265C331.853 132.649 331.707 134.808 332.145 217.13C332.584 292.256 332.73 295.134 335.651 302.762C337.404 307.08 338.948 309.021 339.887 310.64C342.078 314.418 353.617 327.804 363.404 331.69C370.707 334.568 374.505 335 389.55 335C406.202 335 407.516 334.856 416.573 330.538C430.887 323.63 437.022 317.154 443.011 302.042C446.516 293.407 446.517 293.119 446.955 222.167C447.393 153.086 444.508 133.837 444.508 133.837C444.508 133.837 444.168 131.678 443.449 127.9C441.258 116.386 427.674 101.563 415.112 96.8133C404.449 92.6396 381.224 91.7761 369.831 94.7984ZM398.314 129.195C407.955 133.225 407.809 131.786 407.809 214.252C407.809 296.142 407.955 294.559 398.752 299.308C392.325 302.618 381.078 301.323 376.404 297.005C374.359 295.134 372.022 291.248 371.146 288.514C370.123 285.06 369.831 258.291 370.123 211.085C370.561 140.421 370.561 138.838 373.629 134.808C379.325 127.18 388.382 125.165 398.314 129.195Z" fill="black"/>
<path d="M374 175.447C374 178.271 374.58 180.812 375.305 181.235C376.03 181.659 382.555 183.635 389.805 185.471L403 189V177L391.835 174.6C385.6 173.33 379.075 171.918 377.335 171.353C374.29 170.506 374 170.93 374 175.447Z" fill="#036399"/>
<path d="M374 188.205C374 188.982 375.698 190.148 377.68 190.795C382.916 192.738 383.34 192.349 379.236 189.5C375.274 186.651 374 186.262 374 188.205Z" fill="#036399"/>
<path d="M66.6989 100.596C65.6727 103.182 56.8773 123.435 47.2023 145.555C18.1773 212.345 13.1932 224.734 13.1932 224.734C13.1932 224.734 11.8739 227.284 7.47614 237.195L0 254.862V289.909H71.8295V333H111.409V289.909H129V255.436H111.409V96H68.7511L66.6989 100.596ZM71.8295 214.5V255.436H35.475L49.2545 223.405C56.8773 205.882 64.7932 187.496 66.8455 182.469C69.0443 177.585 70.95 173.564 71.2432 173.564C71.5364 173.564 71.8295 191.949 71.8295 214.5Z" fill="black"/>
<path d="M63.937 200.3C62.45 203.164 61.2604 206.172 61.2604 207.032C61.2604 207.891 59.6247 211.759 57.6916 215.483C54.1227 222.358 54.2714 224.363 58.2864 226.082C59.476 226.512 58.7325 226.655 56.502 226.226C53.3792 225.653 52.3383 226.226 51.5948 228.517C51 230.093 50.8513 231.525 51.1487 231.669C55.1636 233.96 66.1676 238.401 66.6137 237.971C67.0598 237.684 67.0598 227.801 66.9111 216.199L66.465 195L63.937 200.3Z" fill="#036399"/>
<path d="M65.9706 244.061C65.8223 246.657 64.6358 248.244 62.4111 248.965L59 250.119L62.4111 250.696C67.0087 251.561 67.4537 250.84 66.7121 245.07C66.2672 241.32 66.1189 241.032 65.9706 244.061Z" fill="#036399"/>
<path d="M173.37 162.03C174.103 149.829 175.128 129.876 175.714 117.819L176.74 96H277.403V130.45H211.467V135.044C211.32 137.628 211.027 143.369 210.734 147.676C210.441 151.982 209.708 161.886 209.415 169.781L208.536 183.849L214.983 178.107C218.5 174.949 223.921 171.647 226.998 170.786C236.083 168.346 252.347 168.92 259.087 171.935C264.042 174.115 268.847 179.58 272.46 184.586C277.02 190.904 279.69 198.309 280.697 206.036C281.922 215.446 283.21 230.906 282.971 253.467L282.969 253.721C282.532 295.672 282.524 296.404 278.722 304.856C276.671 309.736 275.389 311.315 273.74 313.468C270.993 318.313 261.652 330.263 243.702 334.139C242.237 334.139 234.728 335 231.981 335L223.921 335C210.881 334.856 208.243 334.282 199.598 330.263C188.169 324.952 180.403 317.201 175.128 305.717C171.905 298.54 171.319 295.238 170.733 276.434L170.147 255.333H207.071V271.841C207.071 290.645 208.683 295.526 216.156 299.258C222.896 302.703 234.398 302.738 239.673 297.858C239.712 297.823 239.751 297.787 239.79 297.751C243.217 294.576 244.752 289.921 244.771 285.249C244.799 278.469 244.815 267.426 244.728 254.329C244.435 218.873 244.142 213.993 241.797 210.691C238.574 205.954 233.446 203.658 226.119 203.658C212.932 203.658 207.071 210.117 207.071 224.759V233.802H170L171.026 208.969C171.612 195.476 172.637 174.231 173.37 162.03Z" fill="black"/>
<path d="M282 126.177C282 128.72 288.391 130.728 302.044 132.602C312.065 134.075 309.015 131.264 296.089 127.382C281.71 123.098 282 123.098 282 126.177Z" fill="#036399"/>
<path d="M314 134.044C314 134.334 316.889 136.361 320.5 138.244C324.111 140.272 327 141.43 327 140.851C327 140.272 324.111 138.389 320.5 136.651C316.889 134.913 314 133.755 314 134.044Z" fill="#036399"/>
<path d="M216.089 143.105C216.089 147.656 215.652 152.775 215.214 154.339C214.486 157.183 215.069 157.467 225.854 158.321C232.121 158.889 240.574 160.311 244.509 161.449C254.711 164.293 268.994 167.137 291.147 170.55C301.641 172.114 312.717 174.105 315.924 174.816C329.769 178.086 330.789 174.247 318.11 167.421C313.3 164.862 309.365 162.302 309.365 161.876C309.365 161.307 310.24 160.169 311.406 159.316C313.009 157.894 314.758 158.178 319.421 160.454C326.854 164.151 327.146 164.151 326.563 159.885C326.126 156.756 323.794 155.192 307.908 148.367C297.851 144.101 287.358 139.408 284.443 137.844C279.633 135.284 276.135 135 247.57 135H216.089V143.105Z" fill="#036399"/>
<path d="M115 175.765C115 179.048 116.476 179.495 135.076 181.286C140.981 182.032 144.523 181.733 145.114 180.689C146.885 177.854 151.609 178.898 159.876 183.524L167.699 188L168.585 181.733C169.028 178.302 169.175 175.019 168.733 174.721C168.437 174.422 156.185 173.826 141.571 173.378C115.59 172.632 115 172.781 115 175.765Z" fill="#036399"/>
<path d="M115 189.511C115 190.504 119.177 191 125.144 191C134.989 190.835 134.989 190.669 128.426 189.345C119.028 187.525 115 187.525 115 189.511Z" fill="#036399"/>
<path d="M451 193.726V199.849L462.311 201.842C471.984 203.409 473.77 203.409 474.96 201.7C477.639 197.713 475.407 195.435 465.138 191.732C451.149 186.463 451 186.463 451 193.726Z" fill="#036399"/>
<path d="M115 198.555C115 202.709 115.449 203.245 119.936 203.915C122.479 204.317 130.406 203.245 137.436 201.771L150 198.957L144.167 197.35C140.876 196.546 132.949 195.474 126.667 194.938L115 194V198.555Z" fill="#036399"/>
<path d="M126 333H162V297H126V333Z" fill="black"/>
<path d="M287 333H323V297H287V333Z" fill="black"/>
<path d="M451 333H488V297H451V333Z" fill="black"/>
<path d="M164.963 361.811L176.318 343.406H180.73V369H176.318V350.578L164.963 369H160.568V343.406H164.963V361.811Z" fill="black"/>
<path d="M241.927 361.811L253.282 343.406H257.695V369H253.282V350.578L241.927 369H237.532V343.406H241.927V361.811Z" fill="black"/>
<path d="M281.745 361.811L293.1 343.406H297.513V369H293.1V350.578L281.745 369H277.35V343.406H281.745V361.811ZM290.059 336.85H293.206C293.206 337.822 292.971 338.684 292.503 339.434C292.046 340.172 291.389 340.752 290.534 341.174C289.69 341.596 288.682 341.807 287.511 341.807C285.741 341.807 284.341 341.35 283.309 340.436C282.29 339.51 281.78 338.314 281.78 336.85H284.927C284.927 337.506 285.12 338.086 285.507 338.59C285.905 339.082 286.573 339.328 287.511 339.328C288.436 339.328 289.093 339.082 289.479 338.59C289.866 338.086 290.059 337.506 290.059 336.85Z" fill="black"/>
<path d="M350.289 359.455H344.98L345 356L350.289 355.957C351.449 355.957 352.387 355.77 353.102 355.395C353.816 355.02 354.338 354.504 354.666 353.848C355.006 353.18 355.176 352.418 355.176 351.562C355.176 350.754 355.006 349.998 354.666 349.295C354.338 348.58 353.816 348.006 353.102 347.572C352.387 347.139 351.449 346.922 350.289 346.922H344.98V369H340.568V343.406H350.289C352.27 343.406 353.951 343.758 355.334 344.461C356.729 345.152 357.789 346.113 358.516 347.344C359.242 348.562 359.605 349.957 359.605 351.527C359.605 353.18 359.242 354.598 358.516 355.781C357.789 356.965 356.729 357.873 355.334 358.506C353.951 359.139 352.27 359.455 350.289 359.455Z" fill="black"/>
<path d="M382.672 343.406V369H378.259V343.406H382.672Z" fill="black"/>
<path d="M418.921 343.406V346.922H407.038V369H402.644V343.406H418.921Z" fill="black"/>
<path fill-rule="evenodd" clip-rule="evenodd" d="M90.0906 354.164V343.406H85.6961V369H90.0906V357.996H93.1836L100.989 369H106.28L96.767 355.635L105.489 343.406H100.093L92.6395 354.164H90.0906Z" fill="black"/>
<path fill-rule="evenodd" clip-rule="evenodd" d="M127.623 359.455H132.932C134.913 359.455 136.594 359.139 137.977 358.506C139.371 357.873 140.432 356.965 141.159 355.781C141.885 354.598 142.248 353.18 142.248 351.527C142.248 349.957 141.885 348.562 141.159 347.344C140.432 346.113 139.371 345.152 137.977 344.461C136.594 343.758 134.913 343.406 132.932 343.406H123.211V369H127.623V359.455ZM127.623 355.957H132.932C134.092 355.957 135.03 355.77 135.745 355.395C136.459 355.02 136.981 354.504 137.309 353.848C137.649 353.18 137.819 352.418 137.819 351.562C137.819 350.754 137.649 349.998 137.309 349.295C136.981 348.58 136.459 348.006 135.745 347.572C135.03 347.139 134.092 346.922 132.932 346.922H127.623V355.957Z" fill="black"/>
<path d="M211.601 353.795C210.933 354.076 210.119 354.217 209.158 354.217C211.027 354.217 212.631 355.223 214.4 355.679C214.645 355.578 214.878 355.465 215.099 355.342C216.084 354.791 216.828 354.082 217.332 353.215C217.836 352.336 218.087 351.369 218.087 350.314C218.087 349.119 217.882 348.088 217.472 347.221C217.074 346.353 216.482 345.639 215.697 345.076C214.923 344.502 213.98 344.08 212.867 343.811C211.765 343.541 210.511 343.406 209.105 343.406H200.421V369H204.834V365.502V357.434V354.217V346.922H209.105C210.148 346.922 211.004 347.045 211.671 347.291C212.351 347.537 212.855 347.93 213.183 348.469C213.511 349.008 213.675 349.705 213.675 350.561C213.675 351.334 213.5 351.996 213.148 352.547C212.796 353.086 212.281 353.502 211.601 353.795Z" fill="black"/>
<path d="M212.322 365.01C211.654 365.338 210.822 365.502 209.826 365.502H204.834V369H209.826C211.689 369 213.283 368.719 214.607 368.156C215.931 367.582 216.945 366.744 217.648 365.643C218.363 364.541 218.72 363.176 218.72 361.547C218.72 360.492 218.498 359.508 218.052 358.594C217.607 357.68 216.927 356.936 216.013 356.361C215.544 356.062 215.006 355.835 214.4 355.679C212.734 356.366 211.459 356.3 210.019 357.434C211.039 357.434 211.865 357.603 212.498 357.943C213.13 358.271 213.593 358.746 213.886 359.367C214.179 359.977 214.326 360.697 214.326 361.529C214.326 362.326 214.156 363.023 213.816 363.621C213.488 364.207 212.99 364.67 212.322 365.01Z" fill="black"/>
<path d="M205.062 357.434H210.019C211.459 356.3 212.734 356.366 214.4 355.679C212.631 355.223 211.027 354.217 209.158 354.217H204.834V357.434H205.062Z" fill="black"/>
<path fill-rule="evenodd" clip-rule="evenodd" d="M720.322 193.113C721.435 190.037 721.992 186.551 721.992 182.654V180.193C721.992 176.297 721.435 172.811 720.322 169.734C719.209 166.658 717.612 164.021 715.532 161.824C713.481 159.627 711.035 157.957 708.193 156.814C705.38 155.672 702.246 155.101 698.789 155.101C695.361 155.101 692.226 155.672 689.384 156.814C686.543 157.957 684.096 159.627 682.046 161.824C679.995 164.021 678.398 166.658 677.255 169.734C676.142 172.811 675.586 176.297 675.586 180.193V182.654C675.586 186.551 676.142 190.037 677.255 193.113C678.398 196.189 680.009 198.826 682.089 201.023C684.17 203.191 686.63 204.847 689.472 205.989C692.314 207.132 695.449 207.703 698.877 207.703C702.304 207.703 705.439 207.132 708.281 205.989C711.123 204.847 713.554 203.191 715.576 201.023C717.627 198.826 719.209 196.189 720.322 193.113ZM710.566 173.03C711.123 175.081 711.401 177.439 711.401 180.105V182.654C711.401 185.291 711.123 187.649 710.566 189.729C710.009 191.78 709.189 193.523 708.105 194.959C707.021 196.365 705.703 197.449 704.15 198.211C702.627 198.943 700.869 199.31 698.877 199.31C696.914 199.31 695.141 198.943 693.559 198.211C692.006 197.449 690.673 196.365 689.56 194.959C688.476 193.523 687.641 191.78 687.055 189.729C686.499 187.649 686.22 185.291 686.22 182.654V180.105C686.22 177.439 686.499 175.081 687.055 173.03C687.641 170.979 688.462 169.251 689.516 167.845C690.6 166.438 691.919 165.369 693.471 164.637C695.053 163.904 696.826 163.538 698.789 163.538C700.781 163.538 702.553 163.904 704.106 164.637C705.659 165.369 706.977 166.438 708.061 167.845C709.174 169.251 710.009 170.979 710.566 173.03Z" fill="black"/>
<path d="M659.192 187.796C656.673 188.558 653.802 188.938 650.579 188.938H639.988L639.998 180.499L650.579 180.501C652.864 180.501 654.724 180.164 656.16 179.49C657.625 178.816 658.694 177.908 659.368 176.766C660.071 175.594 660.423 174.275 660.423 172.811C660.423 171.287 660.071 169.881 659.368 168.592C658.694 167.303 657.625 166.263 656.16 165.472C654.724 164.651 652.864 164.241 650.579 164.241H639.988V188.938V207H629.397V155.804H650.579C654.886 155.804 658.562 156.536 661.609 158.001C664.656 159.466 666.971 161.473 668.553 164.021C670.164 166.541 670.97 169.441 670.97 172.723C670.97 175.184 670.515 177.41 669.607 179.402C668.699 181.395 667.366 183.108 665.608 184.544C663.85 185.95 661.712 187.034 659.192 187.796Z" fill="black"/>
<path d="M738.63 168.499L739.484 192.938V207H728.893V155.804H742.736L757.545 193.113L772.311 155.804H786.242V207H775.651V192.938L776.725 167.722L761.149 207H753.898L738.63 168.499Z" fill="black"/>
<path fill-rule="evenodd" clip-rule="evenodd" d="M790.023 207L810.633 155.804H820.477L841.043 207H830.321L826.138 195.974L804.998 195.999L800.745 207H790.023ZM807.998 188.016L815.51 167.953L823.12 188.016H807.998Z" fill="black"/>
<path fill-rule="evenodd" clip-rule="evenodd" d="M841.396 198.562L841.353 221.766H851.987V207H886.177V221.81H896.768V198.562H890.176V155.804H853.789L853.306 173.821C853.218 177.513 852.983 180.633 852.603 183.182C852.251 185.73 851.738 187.898 851.064 189.686C850.391 191.473 849.57 193.069 848.604 194.476C847.666 195.882 846.625 197.215 845.395 198.562H841.396ZM863.853 173.997L864.088 164.241H879.585V198.562H857.268C858.466 197.083 859.47 195.479 860.161 193.948C861.245 191.517 862.095 188.66 862.71 185.379C863.354 182.098 863.735 178.304 863.853 173.997Z" fill="black"/>
<path d="M943.044 199.178C944.831 196.512 945.856 193.436 946.12 189.949H935.485C935.309 192 934.797 193.729 933.947 195.135C933.097 196.541 931.882 197.596 930.3 198.299C928.718 198.973 926.681 199.31 924.191 199.31C922.111 199.31 920.309 198.958 918.786 198.255C917.292 197.522 916.061 196.468 915.095 195.091C914.128 193.714 913.41 192.029 912.941 190.037C912.502 188.016 912.282 185.716 912.282 183.138V179.666C912.282 177.029 912.531 174.715 913.029 172.723C913.556 170.701 914.318 169.002 915.314 167.625C916.34 166.248 917.599 165.223 919.094 164.549C920.588 163.846 922.331 163.494 924.323 163.494C926.901 163.494 928.981 163.904 930.563 164.725C932.145 165.545 933.332 166.688 934.123 168.152C934.914 169.588 935.397 171.258 935.573 173.162H946.164C945.812 169.646 944.772 166.526 943.044 163.802C941.315 161.077 938.898 158.953 935.793 157.43C932.687 155.877 928.864 155.101 924.323 155.101C920.866 155.101 917.746 155.672 914.963 156.814C912.209 157.928 909.836 159.568 907.844 161.736C905.851 163.875 904.328 166.468 903.273 169.515C902.219 172.532 901.691 175.931 901.691 179.71V183.138C901.691 186.917 902.204 190.33 903.229 193.377C904.284 196.395 905.778 198.973 907.712 201.111C909.675 203.221 912.033 204.847 914.787 205.989C917.57 207.132 920.705 207.703 924.191 207.703C928.674 207.703 932.497 206.956 935.661 205.462C938.825 203.938 941.286 201.844 943.044 199.178Z" fill="black"/>
<path fill-rule="evenodd" clip-rule="evenodd" d="M973.5 173.602C977.718 173.602 981.337 174.305 984.354 175.711C987.401 177.088 989.745 179.021 991.385 181.512C993.026 183.973 993.846 186.858 993.846 190.169C993.846 193.45 993.026 196.365 991.385 198.914C989.745 201.434 987.401 203.411 984.354 204.847C981.337 206.282 977.718 207 973.5 207H952.23V155.804H962.821V173.602H973.5ZM978.993 183.182C977.557 182.42 975.726 182.039 973.5 182.039H962.821V198.562H973.5C976.81 198.562 979.256 197.713 980.838 196.014C982.45 194.285 983.255 192.308 983.255 190.081C983.255 188.616 982.904 187.283 982.201 186.082C981.498 184.881 980.428 183.914 978.993 183.182Z" fill="black"/>
<path fill-rule="evenodd" clip-rule="evenodd" d="M1028.78 155.804L1015.29 176.897H1010.64V155.804H1000V207H1010.64V186.258H1015.54L1029.49 207H1053.22L1057.39 195.97H1078.61L1082.8 207H1093.52L1072.95 155.804H1063.11L1042.56 206.844L1024 180.816L1041.18 155.804H1028.78ZM1067.98 167.946L1060.4 188.016H1075.59L1067.98 167.946Z" fill="black"/>
<path fill-rule="evenodd" clip-rule="evenodd" d="M632.164 298.113C633.277 295.037 633.834 291.551 633.834 287.654V285.193C633.834 281.297 633.277 277.811 632.164 274.734C631.051 271.658 629.454 269.021 627.374 266.824C625.323 264.627 622.877 262.957 620.035 261.814C617.223 260.672 614.088 260.101 610.631 260.101C607.203 260.101 604.068 260.672 601.227 261.814C598.385 262.957 595.938 264.627 593.888 266.824C591.837 269.021 590.24 271.658 589.098 274.734C587.984 277.811 587.428 281.297 587.428 285.193V287.654C587.428 291.551 587.984 295.037 589.098 298.113C590.24 301.189 591.852 303.826 593.932 306.023C596.012 308.191 598.473 309.847 601.314 310.989C604.156 312.132 607.291 312.703 610.719 312.703C614.146 312.703 617.281 312.132 620.123 310.989C622.965 309.847 625.396 308.191 627.418 306.023C629.469 303.826 631.051 301.189 632.164 298.113ZM622.408 278.03C622.965 280.081 623.243 282.439 623.243 285.105V287.654C623.243 290.291 622.965 292.649 622.408 294.729C621.852 296.78 621.031 298.523 619.947 299.959C618.863 301.365 617.545 302.449 615.992 303.211C614.469 303.943 612.711 304.31 610.719 304.31C608.756 304.31 606.983 303.943 605.401 303.211C603.849 302.449 602.516 301.365 601.402 299.959C600.318 298.523 599.483 296.78 598.897 294.729C598.341 292.649 598.062 290.291 598.062 287.654V285.105C598.062 282.439 598.341 280.081 598.897 278.03C599.483 275.979 600.304 274.251 601.358 272.845C602.442 271.438 603.761 270.369 605.313 269.637C606.896 268.904 608.668 268.538 610.631 268.538C612.623 268.538 614.396 268.904 615.948 269.637C617.501 270.369 618.819 271.438 619.903 272.845C621.017 274.251 621.852 275.979 622.408 278.03Z" fill="black"/>
<path fill-rule="evenodd" clip-rule="evenodd" d="M670.53 292.796C668.011 293.558 665.139 293.938 661.917 293.938H651.326V312H640.735V260.804H661.917C666.223 260.804 669.9 261.536 672.947 263.001C675.994 264.466 678.308 266.473 679.89 269.021C681.502 271.541 682.307 274.441 682.307 277.723C682.307 280.184 681.853 282.41 680.945 284.402C680.037 286.395 678.704 288.108 676.946 289.544C675.188 290.95 673.05 292.034 670.53 292.796ZM667.498 270.472C666.062 269.651 664.202 269.241 661.917 269.241H651.326V285.501H661.917C664.202 285.501 666.062 285.164 667.498 284.49C668.963 283.816 670.032 282.908 670.706 281.766C671.409 280.594 671.761 279.275 671.761 277.811C671.761 276.287 671.409 274.881 670.706 273.592C670.032 272.303 668.963 271.263 667.498 270.472Z" fill="black"/>
<path fill-rule="evenodd" clip-rule="evenodd" d="M775.079 312L754.513 260.804H744.669L724.059 312H734.782L738.951 300.97H760.173L764.357 312H775.079ZM749.543 272.946L741.957 293.016H757.156L749.543 272.946Z" fill="black"/>
<path d="M875.939 281.238C874.562 281.795 872.746 282.073 870.49 282.073H864.118V289.588H870.314C872.013 289.588 873.508 289.749 874.797 290.071C876.086 290.364 877.155 290.818 878.005 291.434C878.884 292.049 879.543 292.84 879.982 293.807C880.422 294.744 880.641 295.857 880.641 297.146C880.641 298.553 880.275 299.798 879.543 300.882C878.81 301.937 877.682 302.771 876.159 303.387C874.636 304.002 872.687 304.31 870.314 304.31C868.586 304.31 867.018 304.075 865.612 303.606C864.206 303.138 863.078 302.42 862.228 301.453C861.379 300.457 860.895 299.183 860.778 297.63H850.187C850.187 300.413 850.773 302.771 851.945 304.705C853.146 306.639 854.714 308.191 856.647 309.363C858.61 310.535 860.763 311.385 863.107 311.912C865.48 312.439 867.853 312.703 870.226 312.703C873.273 312.703 876.071 312.396 878.62 311.78C881.169 311.136 883.395 310.198 885.3 308.968C887.204 307.708 888.669 306.155 889.694 304.31C890.749 302.435 891.276 300.267 891.276 297.806C891.276 295.901 890.881 294.144 890.09 292.532C889.299 290.892 888.097 289.471 886.486 288.27C885.141 287.248 883.509 286.428 881.591 285.809C882.846 285.293 884.058 284.632 885.212 283.787C886.852 282.557 888.127 281.121 889.035 279.48C889.972 277.811 890.441 275.994 890.441 274.031C890.441 271.717 889.958 269.695 888.991 267.967C888.024 266.209 886.662 264.759 884.904 263.616C883.146 262.444 881.022 261.565 878.532 260.979C876.071 260.394 873.303 260.101 870.226 260.101C867.502 260.101 864.968 260.423 862.624 261.067C860.309 261.712 858.273 262.649 856.515 263.88C854.758 265.11 853.381 266.619 852.385 268.406C851.418 270.164 850.934 272.186 850.934 274.471H861.525C861.525 273.123 861.921 272.01 862.712 271.131C863.532 270.252 864.587 269.607 865.876 269.197C867.194 268.758 868.63 268.538 870.182 268.538C872.497 268.538 874.357 268.846 875.763 269.461C877.17 270.076 878.195 270.896 878.84 271.922C879.513 272.918 879.85 274.031 879.85 275.262C879.85 276.639 879.543 277.84 878.928 278.865C878.312 279.861 877.316 280.652 875.939 281.238Z" fill="black"/>
<path fill-rule="evenodd" clip-rule="evenodd" d="M914.481 260.804L893.871 312H904.593L908.762 300.97L929.978 300.951L934.169 312H944.891L924.325 260.804H914.481ZM919.355 272.946L911.769 293.016H926.968L919.355 272.946Z" fill="black"/>
<path d="M1000.53 326.81L1001.36 303.562H992.837V260.804H982.203V303.562H959.263V260.804H948.672V312H990.772V326.81H1000.53Z" fill="black"/>
<path fill-rule="evenodd" clip-rule="evenodd" d="M1037.14 312L1047.29 292.4H1057.88V312H1068.51V260.804H1048.26C1045.18 260.804 1042.43 261.155 1039.99 261.858C1037.59 262.532 1035.53 263.528 1033.8 264.847C1032.1 266.165 1030.79 267.776 1029.89 269.681C1029.01 271.556 1028.57 273.68 1028.57 276.053C1028.57 278.279 1029.02 280.315 1029.93 282.161C1030.87 283.978 1032.26 285.56 1034.11 286.907C1035.21 287.682 1036.47 288.35 1037.91 288.912L1025.76 312H1037.14ZM1041.31 271.351C1042.78 269.944 1045.08 269.241 1048.21 269.241H1057.88V284.007H1048.21C1046.13 284.007 1044.42 283.714 1043.07 283.128C1041.72 282.513 1040.73 281.663 1040.08 280.579C1039.47 279.466 1039.16 278.177 1039.16 276.712C1039.16 274.544 1039.88 272.757 1041.31 271.351Z" fill="black"/>
<path d="M599.776 164.241V207H589.186V155.804H624.474V164.241H599.776Z" fill="black"/>
<path d="M699.272 312V269.241H723.969V260.804H688.681V312H699.272Z" fill="black"/>
<path d="M789.451 291.038H812.611V312H823.201V260.804H812.611V282.601H789.451V260.804H778.861V312H789.451V291.038Z" fill="black"/>
<path d="M843.154 260.804V312H832.52V260.804H843.154Z" fill="black"/>
<path d="M1018.77 260.804V312H1008.13V260.804H1018.77Z" fill="black"/>
<path d="M536 53V402" stroke="black" stroke-width="3"/>
</svg>
