<svg width="48" height="48" viewBox="0 0 48 48" fill="none" xmlns="http://www.w3.org/2000/svg">
<path d="M40 24C40 15.1635 32.8365 8 24 8C15.1635 8 8 15.1634 8 24C8 31.986 13.851 38.6054 21.5 39.8056V28.625H17.4375V24H21.5V20.475C21.5 16.465 23.8888 14.25 27.5434 14.25C29.294 14.25 31.125 14.5625 31.125 14.5625V18.5H29.1075C27.1198 18.5 26.5 19.7334 26.5 20.9987V24H30.9375L30.2281 28.625H26.5V39.8056C34.149 38.6054 40 31.9861 40 24Z" fill="white"/>
<path d="M30.2281 28.625L30.9375 24H26.5V20.9987C26.5 19.7332 27.1199 18.5 29.1075 18.5H31.125V14.5625C31.125 14.5625 29.294 14.25 27.5434 14.25C23.8888 14.25 21.5 16.465 21.5 20.475V24H17.4375V28.625H21.5V39.8056C22.327 39.9352 23.1629 40.0002 24 40C24.8371 40.0002 25.673 39.9353 26.5 39.8056V28.625H30.2281Z" fill="#036399"/>
</svg>
