<svg width="48" height="48" viewBox="0 0 48 48" fill="none" xmlns="http://www.w3.org/2000/svg">
<path d="M17.28 8H30.72C35.84 8 40 12.16 40 17.28V30.72C40 33.1812 39.0223 35.5416 37.282 37.282C35.5416 39.0223 33.1812 40 30.72 40H17.28C12.16 40 8 35.84 8 30.72V17.28C8 14.8188 8.97771 12.4584 10.718 10.718C12.4584 8.97771 14.8188 8 17.28 8ZM16.96 11.2C15.4324 11.2 13.9673 11.8069 12.8871 12.8871C11.8069 13.9673 11.2 15.4324 11.2 16.96V31.04C11.2 34.224 13.776 36.8 16.96 36.8H31.04C32.5676 36.8 34.0327 36.1931 35.1129 35.1129C36.1931 34.0327 36.8 32.5676 36.8 31.04V16.96C36.8 13.776 34.224 11.2 31.04 11.2H16.96ZM32.4 13.6C32.9304 13.6 33.4391 13.8107 33.8142 14.1858C34.1893 14.5609 34.4 15.0696 34.4 15.6C34.4 16.1304 34.1893 16.6391 33.8142 17.0142C33.4391 17.3893 32.9304 17.6 32.4 17.6C31.8696 17.6 31.3609 17.3893 30.9858 17.0142C30.6107 16.6391 30.4 16.1304 30.4 15.6C30.4 15.0696 30.6107 14.5609 30.9858 14.1858C31.3609 13.8107 31.8696 13.6 32.4 13.6ZM24 16C26.1217 16 28.1566 16.8429 29.6569 18.3431C31.1571 19.8434 32 21.8783 32 24C32 26.1217 31.1571 28.1566 29.6569 29.6569C28.1566 31.1571 26.1217 32 24 32C21.8783 32 19.8434 31.1571 18.3431 29.6569C16.8429 28.1566 16 26.1217 16 24C16 21.8783 16.8429 19.8434 18.3431 18.3431C19.8434 16.8429 21.8783 16 24 16ZM24 19.2C22.727 19.2 21.5061 19.7057 20.6059 20.6059C19.7057 21.5061 19.2 22.727 19.2 24C19.2 25.273 19.7057 26.4939 20.6059 27.3941C21.5061 28.2943 22.727 28.8 24 28.8C25.273 28.8 26.4939 28.2943 27.3941 27.3941C28.2943 26.4939 28.8 25.273 28.8 24C28.8 22.727 28.2943 21.5061 27.3941 20.6059C26.4939 19.7057 25.273 19.2 24 19.2Z" fill="white"/>
</svg>
