<svg width="30" height="32" viewBox="0 0 30 32" fill="none" xmlns="http://www.w3.org/2000/svg">
<path d="M20.0135 27.334C20.177 27.1554 20.2686 26.9157 20.2686 26.666C20.2686 26.4163 20.177 26.1766 20.0135 25.998L10.8766 16L20.0135 6.00401C20.177 5.82541 20.2686 5.58566 20.2686 5.33601C20.2686 5.08636 20.177 4.84661 20.0135 4.66801C19.934 4.58092 19.8389 4.51171 19.7339 4.46444C19.629 4.41718 19.5162 4.39283 19.4022 4.39283C19.2883 4.39283 19.1755 4.41718 19.0705 4.46444C18.9655 4.51171 18.8704 4.58092 18.791 4.66801L9.07471 15.302C8.90405 15.4888 8.80855 15.7392 8.80855 16C8.80855 16.2608 8.90405 16.5113 9.07471 16.698L18.791 27.332C18.8704 27.4191 18.9655 27.4883 19.0705 27.5356C19.1755 27.5828 19.2883 27.6072 19.4022 27.6072C19.5162 27.6072 19.629 27.5828 19.7339 27.5356C19.8389 27.4883 19.934 27.4191 20.0135 27.332L20.0135 27.334Z" fill="#036399"/>
</svg>
