<svg width="24" height="24" viewBox="0 0 24 24" fill="none" xmlns="http://www.w3.org/2000/svg">
<g id="ep:arrow-down">
<path id="Vector" d="M20.5007 7.98899C20.3667 7.85816 20.1869 7.78491 19.9997 7.78491C19.8124 7.78491 19.6326 7.85816 19.4987 7.98899L12.0002 15.2985L4.50319 7.98899C4.36924 7.85816 4.18943 7.78491 4.00219 7.78491C3.81495 7.78491 3.63514 7.85816 3.50119 7.98899C3.43588 8.05259 3.38396 8.12862 3.34852 8.21261C3.31307 8.29659 3.29481 8.38683 3.29481 8.47799C3.29481 8.56915 3.31307 8.65939 3.34852 8.74338C3.38396 8.82736 3.43588 8.9034 3.50119 8.96699L11.4767 16.74C11.6167 16.8765 11.8046 16.9529 12.0002 16.9529C12.1958 16.9529 12.3836 16.8765 12.5237 16.74L20.4992 8.96699C20.5645 8.9034 20.6164 8.82736 20.6519 8.74338C20.6873 8.65939 20.7056 8.56915 20.7056 8.47799C20.7056 8.38683 20.6873 8.29659 20.6519 8.21261C20.6164 8.12862 20.5645 8.05259 20.4992 7.98899H20.5007Z" fill="#036399"/>
</g>
</svg>
