<svg width="24" height="24" viewBox="0 0 24 24" fill="none" xmlns="http://www.w3.org/2000/svg">
<mask id="mask0_1900_1840" style="mask-type:alpha" maskUnits="userSpaceOnUse" x="0" y="0" width="24" height="24">
<path d="M24 0H0V24H24V0Z" fill="#D9D9D9"/>
</mask>
<g mask="url(#mask0_1900_1840)">
<path d="M5.00003 22C4.44998 22 3.9792 21.8042 3.58748 21.4125C3.19583 21.0208 3 20.5501 3 20V6.00005H5.00003V20H16V22H5.00003ZM9 18C8.45002 18 7.97917 17.8041 7.58752 17.4125C7.1958 17.0208 6.99997 16.55 6.99997 16V4.00002C6.99997 3.45005 7.1958 2.9792 7.58752 2.58755C7.97917 2.19582 8.45002 2 9 2H18C18.55 2 19.0208 2.19582 19.4125 2.58755C19.8042 2.9792 20 3.45005 20 4.00002V16C20 16.55 19.8042 17.0208 19.4125 17.4125C19.0208 17.8041 18.55 18 18 18H9ZM9 16H18V4.00002H9V16Z" fill="#036399"/>
</g>
</svg>
