<svg width="24" height="24" viewBox="0 0 24 24" fill="none" xmlns="http://www.w3.org/2000/svg">
<path d="M20.5002 7.98899C20.3662 7.85816 20.1864 7.78491 19.9992 7.78491C19.812 7.78491 19.6321 7.85816 19.4982 7.98899L11.9997 15.2985L4.5027 7.98899C4.36876 7.85816 4.18894 7.78491 4.0017 7.78491C3.81446 7.78491 3.63465 7.85816 3.5007 7.98899C3.43539 8.05259 3.38347 8.12862 3.34803 8.21261C3.31258 8.29659 3.29432 8.38683 3.29432 8.47799C3.29432 8.56915 3.31258 8.65939 3.34803 8.74338C3.38347 8.82736 3.43539 8.9034 3.5007 8.96699L11.4762 16.74C11.6163 16.8765 11.8041 16.9529 11.9997 16.9529C12.1953 16.9529 12.3831 16.8765 12.5232 16.74L20.4987 8.96699C20.564 8.9034 20.6159 8.82736 20.6514 8.74338C20.6868 8.65939 20.7051 8.56915 20.7051 8.47799C20.7051 8.38683 20.6868 8.29659 20.6514 8.21261C20.6159 8.12862 20.564 8.05259 20.4987 7.98899H20.5002Z" fill="#036399"/>
</svg>
