<svg width="24" height="24" viewBox="0 0 24 24" fill="none" xmlns="http://www.w3.org/2000/svg">
<path d="M20.3593 15.1401C19.3004 15.0094 18.249 14.8241 17.2093 14.5851C16.9554 14.5002 16.684 14.4823 16.4212 14.5331C16.1584 14.584 15.9132 14.7017 15.7093 14.8751C15.4443 15.1451 14.6793 15.9001 13.8843 16.6801C11.0359 15.2798 8.7323 12.9745 7.33426 10.1251C8.10926 9.33006 8.83426 8.57006 9.12926 8.30506C9.3026 8.10113 9.42037 7.85591 9.47117 7.59313C9.52198 7.33035 9.50409 7.05891 9.41926 6.80506C9.17987 5.76369 8.99462 4.71061 8.86426 3.65006C8.85029 3.51501 8.80897 3.38422 8.74281 3.26565C8.67665 3.14709 8.58704 3.04324 8.47944 2.96043C8.37184 2.87763 8.2485 2.8176 8.11695 2.78401C7.9854 2.75042 7.84838 2.74398 7.71426 2.76506H3.45426C3.27841 2.78094 3.11381 2.85834 2.98942 2.98364C2.86504 3.10894 2.78884 3.27411 2.77426 3.45006C2.49926 7.29506 4.64426 11.4101 5.07926 12.2001V12.2301L5.13926 12.3451C6.69643 15.0458 8.93854 17.2879 11.6393 18.8451L11.8593 18.9701C12.8593 19.5001 16.8343 21.5001 20.5493 21.2251C20.727 21.2127 20.8945 21.1375 21.0219 21.0129C21.1492 20.8883 21.2281 20.7225 21.2443 20.5451V16.2901C21.2653 16.1559 21.2589 16.0189 21.2253 15.8874C21.1917 15.7558 21.1317 15.6325 21.0489 15.5249C20.9661 15.4173 20.8622 15.3277 20.7437 15.2615C20.6251 15.1953 20.4943 15.154 20.3593 15.1401Z" fill="white"/>
</svg>
